<?xml version="1.0" standalone="no"?>
<!DOCTYPE svg PUBLIC "-//W3C//DTD SVG 1.1//EN" "http://www.w3.org/Graphics/SVG/1.1/DTD/svg11.dtd" >
<svg xmlns="http://www.w3.org/2000/svg">
<metadata></metadata>
<defs>
<font id="codelight" horiz-adv-x="1302" >
<font-face units-per-em="2048" ascent="1638" descent="-410" />
<missing-glyph horiz-adv-x="780" />
<glyph horiz-adv-x="2048" />
<glyph horiz-adv-x="2048" />
<glyph unicode="&#xd;" horiz-adv-x="780" />
<glyph unicode=" "  horiz-adv-x="780" />
<glyph unicode="&#x09;" horiz-adv-x="780" />
<glyph unicode="&#xa0;" horiz-adv-x="780" />
<glyph unicode="!" horiz-adv-x="225" d="M76 26q0 14 11 25t31 11q11 0 21.5 -11t10.5 -25q0 -17 -10.5 -27.5t-21.5 -10.5q-20 0 -31 10.5t-11 27.5zM98 194v1345h35v-1345h-35z" />
<glyph unicode="&#x22;" horiz-adv-x="375" d="M98 1110v440h35v-440h-35zM233 1110v440h41v-440h-41z" />
<glyph unicode="#" horiz-adv-x="1049" d="M43 481v35h213l66 414h-209v33h215l78 473h40l-77 -473h370l78 473h39l-78 -473h193v-33h-199l-67 -414h194v-35h-201l-77 -481h-39l80 481h-373l-78 -481h-41l80 481h-207zM295 516h373l65 414h-371z" />
<glyph unicode="$" horiz-adv-x="1169" d="M50 363v14h35v-11q9 -87 56 -151.5t115 -107.5t149 -66t158 -27v750q-60 5 -118.5 12.5t-112 21.5t-100 37.5t-81.5 60.5t-57 91t-26 129q-5 69 9.5 137t55.5 125q36 45 85.5 79t105.5 57.5t117.5 37t121.5 16.5v131h33v-131q82 -1 161.5 -24t144.5 -66.5t111 -106 t61 -143.5l7 -17l-36 -6l-3 20q-8 49 -28 90t-51 79q-35 34 -78 60.5t-91 43.5t-98.5 26t-99.5 9v-738q85 -9 168.5 -21t153.5 -41t121 -81.5t71 -141.5q18 -81 6.5 -151t-44.5 -128t-84.5 -103.5t-114.5 -76.5t-134 -48t-143 -17v-146h-33v146q-56 0 -114 11.5t-112.5 33.5 t-104 53.5t-87.5 73.5t-63.5 93t-31.5 112zM98 1116q9 -97 50 -156.5t104.5 -93.5t144 -49t166.5 -22v738q-53 -1 -108 -12t-107 -32.5t-98 -54t-81 -76.5q-38 -51 -57 -113t-14 -129zM596 14q66 3 132.5 19t125.5 44.5t107.5 69t80.5 93t43 116.5t-4 140q-19 81 -66.5 129 t-113.5 74.5t-145 38.5t-160 21v-745z" />
<glyph unicode="%" horiz-adv-x="1382" d="M90 1147q0 64 23.5 118t63 94t93 62.5t113.5 22.5t113.5 -22.5t93 -62.5t63 -94t23.5 -118q0 -61 -23.5 -114.5t-63 -93.5t-93 -63.5t-113.5 -23.5t-113.5 22.5t-93 62t-63 93.5t-23.5 117zM133 1147q0 -53 19 -99.5t52.5 -81.5t79 -55t99.5 -20t100.5 20t80 55 t52.5 81.5t19 99.5q0 54 -19 101.5t-52.5 82t-80 54.5t-100.5 20t-99.5 -20t-79 -54.5t-52.5 -82t-19 -101.5zM213 -23l899 1489h47l-897 -1489h-49zM698 283q0 64 23.5 118t63 94t93 62.5t113.5 22.5t113.5 -22.5t93 -62.5t63 -94t23.5 -118q0 -61 -23.5 -114.5t-63 -93.5 t-93 -63.5t-113.5 -23.5t-113.5 22.5t-93 62t-63 93.5t-23.5 117zM741 283q0 -53 19 -100t52.5 -81.5t79 -54.5t99.5 -20q55 0 101 20t79.5 54.5t52.5 81.5t19 100q0 54 -19 101.5t-52.5 82t-79.5 54.5t-101 20q-54 0 -99.5 -20t-79 -54.5t-52.5 -82t-19 -101.5z" />
<glyph unicode="&#x26;" horiz-adv-x="1260" d="M62 436q5 52 23 106t53.5 103t91 88t136.5 62l73 3v5l-73 9q-68 22 -112.5 59.5t-71.5 85t-38 103.5t-11 115q0 91 35 161.5t93 120t133 78.5t156 37t160.5 -5.5t147 -49t116.5 -92t68 -135.5l-33 -11q-17 71 -62 123t-107 84t-136 44.5t-148 5.5t-144 -33t-123.5 -71 t-86.5 -109.5t-33 -147.5q0 -66 19 -131t63.5 -116.5t117 -83.5t180.5 -32h715v-32h-171v-444q-11 -70 -45 -133t-94 -111t-148.5 -76.5t-209.5 -29.5q-94 -3 -172 13t-139 46.5t-106 73.5t-72.5 94t-39 108t-5.5 115zM91 428q-6 -76 21.5 -150.5t89.5 -133t160 -94.5 t234 -36q112 0 194.5 27.5t138.5 73t87 105.5t41 126v434h-508q-119 6 -202.5 -24t-138 -81t-82.5 -116.5t-35 -130.5z" />
<glyph unicode="'" horiz-adv-x="262" d="M109 1110v440h32v-440h-32z" />
<glyph unicode="(" horiz-adv-x="702" d="M139 721q0 148 36.5 289.5t102.5 264.5t158.5 223t204.5 165v-43q-108 -71 -193 -173.5t-143 -222t-88.5 -249t-30.5 -254.5q0 -128 33.5 -260t94.5 -253t147.5 -224.5t193.5 -173.5v-48q-115 70 -210 175t-163 231.5t-105.5 268t-37.5 284.5z" />
<glyph unicode=")" horiz-adv-x="731" d="M61 -190q107 70 193.5 173.5t148 224.5t94.5 253t33 260q0 123 -30.5 252t-88.5 249t-142.5 223.5t-192.5 174.5v43q112 -65 204.5 -167.5t158.5 -227.5t102.5 -265.5t36.5 -281.5q0 -143 -37.5 -284.5t-105.5 -268t-163.5 -231.5t-210.5 -175v48z" />
<glyph unicode="*" horiz-adv-x="803" d="M84 1260l10 32l283 -92v311h35v-313l293 96l10 -32l-295 -95l196 -264l-28 -20l-195 264l-188 -262l-31 18l193 264z" />
<glyph unicode="+" horiz-adv-x="1069" d="M104 723v41h402v407h43v-407h399v-41h-399v-422h-43v422h-402z" />
<glyph unicode="," horiz-adv-x="230" d="M-12 -206l103 268h59l-124 -268h-38z" />
<glyph unicode="-" horiz-adv-x="786" d="M127 694v45h504v-45h-504z" />
<glyph unicode="." horiz-adv-x="245" d="M85 26q0 27 14 38.5t31 11.5q15 0 28 -11.5t13 -38.5q0 -11 -13 -24.5t-28 -13.5q-9 0 -17 4t-14 10t-10 12.5t-4 11.5z" />
<glyph unicode="/" horiz-adv-x="772" d="M72 -111l579 1680h43l-577 -1680h-45z" />
<glyph unicode="0" horiz-adv-x="1220" d="M39.5 776.5q0.5 118.5 23 231.5t68 213t113.5 175t159 119t205 44q115 0 206.5 -44t160 -119t114.5 -175t69 -213t23 -231.5t-23 -231.5t-69 -213t-114.5 -175t-160 -119t-206.5 -44q-114 0 -205 44t-159 119t-113.5 175t-68.5 213t-22.5 231.5zM76 776.5 q0 -114.5 21.5 -222.5t64 -204t106 -168t149 -114t191.5 -42q107 0 193 42t150.5 114t107 168t64 204t21.5 222.5t-21.5 222.5t-64 204t-107 168t-150.5 114t-193 42q-106 0 -191.5 -42t-149 -114t-106 -168t-64 -204t-21.5 -222.5z" />
<glyph unicode="1" horiz-adv-x="526" d="M-6 1017l381 531h33v-1548h-31v1443l6 67h-6l-28 -54l-323 -455z" />
<glyph unicode="2" horiz-adv-x="1127" d="M50 3v26l786 675q43 37 79.5 81t64.5 93t45 103t20 112q2 82 -29 159.5t-92.5 137.5t-153 96t-210.5 36q-122 0 -212.5 -40t-151 -106t-90.5 -150.5t-30 -174.5h-26q0 95 32 185t96 159.5t159.5 112t222.5 42.5q128 0 227 -36.5t166 -98.5t100.5 -144.5t30.5 -174.5 q-1 -65 -18.5 -123.5t-46.5 -110t-68 -96.5t-83 -82l-770 -655h970v-26h-1018z" />
<glyph unicode="3" horiz-adv-x="1116" d="M45 336l31 10q9 -66 40 -126t86.5 -105.5t137 -73t192.5 -27.5q127 0 222 33t158.5 87t95 122.5t31.5 140.5t-31.5 140.5t-95 122.5t-158.5 87t-222 33h-104v32h104q109 0 190.5 32t135.5 83.5t81 116.5t27 131q-1 83 -33.5 147.5t-86 109.5t-123 71t-144 33t-148.5 -5.5 t-137 -44.5t-109 -84t-64 -123l-30 11q19 79 68.5 135.5t117 92t147 49t159.5 5.5t155 -37t133 -78.5t92.5 -120t34.5 -161.5q0 -59 -16.5 -115t-50.5 -103.5t-86 -85t-122 -59.5l-76 -9v-5l76 -3q81 -20 143.5 -57.5t106.5 -85.5t69.5 -103.5t31.5 -112.5q8 -80 -21 -160.5 t-96.5 -145t-173.5 -104.5t-251 -40q-116 0 -203 28.5t-146.5 76.5t-93.5 111.5t-44 133.5z" />
<glyph unicode="4" horiz-adv-x="1116" d="M26 405v26l875 1119h38v-1119h145v-26h-145v-405h-29v405h-884zM65 431h845v1012l3 73l-36 -54z" />
<glyph unicode="5" horiz-adv-x="1125" d="M45 324l31 12q21 -63 60.5 -118.5t97 -97.5t134 -66.5t172.5 -24.5q126 0 220.5 40.5t156.5 106.5t92 149.5t28 170.5q0 64 -16.5 126.5t-49.5 118t-82.5 101.5t-116.5 77q-81 33 -165 42t-167 0t-163.5 -34t-155.5 -59q-15 2 -24.5 6t-20.5 9v633v32h33h869v-32h-869 v-615q73 34 156 58t169.5 33t174 0t168.5 -42q75 -31 131 -78t93 -106t55 -127.5t18 -142.5q3 -92 -29.5 -181t-99.5 -159t-168.5 -113t-236.5 -43q-103 0 -184.5 25t-143 68.5t-103 102.5t-64.5 128z" />
<glyph unicode="6" horiz-adv-x="1143" d="M37 450q-8 87 13 173.5t71 159.5l540 767h43l-400 -570l-82 -103l79 56q56 29 120.5 47t147.5 18q135 0 236 -43t168 -113t100.5 -159.5t33.5 -183.5t-33.5 -183.5t-100.5 -159.5t-168 -113t-236 -43q-125 0 -221 37.5t-162.5 100t-103.5 144t-45 168.5zM66 496 q0 -88 31.5 -171.5t94.5 -149.5t157 -106t220 -40q125 0 218.5 40t155.5 106t93.5 149.5t31.5 171.5t-31.5 171.5t-93.5 149.5t-155.5 106t-218.5 40q-126 0 -220 -40t-157 -106t-94.5 -149.5t-31.5 -171.5z" />
<glyph unicode="7" horiz-adv-x="1093" d="M26 1516v32h1037v-32l-830 -1516h-39l823 1516h-991z" />
<glyph unicode="8" horiz-adv-x="1149" d="M40.5 348q-11.5 71 4.5 142.5t59 134t112.5 111t166.5 73.5l95 3v3l-95 8q-68 23 -117.5 62t-82.5 87.5t-49 105t-16 114.5q0 99 39.5 172t103.5 121.5t144.5 72t163.5 23.5q115 0 202 -33.5t144.5 -89t86.5 -126t29 -143.5q0 -57 -17 -113t-51 -104.5t-85.5 -87.5 t-121.5 -61l-72 -8v-3h72q98 -25 168.5 -74t113.5 -111.5t58.5 -134.5t4 -143t-51 -137t-106 -116t-160 -80t-214.5 -30t-214.5 30t-159.5 80t-104.5 115.5t-50 136.5zM71 404.5q0 -73.5 31 -143.5t93.5 -125t155.5 -88.5t218 -33.5q126 0 220.5 33.5t157 88.5t94 125 t31.5 143.5t-31.5 143.5t-94 125t-157 88.5t-220.5 33.5q-125 0 -218 -33.5t-155.5 -88.5t-93.5 -125t-31 -143.5zM141 1189q0 -68 27 -132.5t80.5 -115t133.5 -81.5t187 -31q108 0 188.5 31t134 82t80 116t26.5 134q0 93 -38 160t-98.5 110.5t-137.5 64.5t-155 21 q-76 0 -152.5 -21.5t-137.5 -66t-99.5 -112t-38.5 -159.5z" />
<glyph unicode="9" horiz-adv-x="1149" d="M47 1052.5q0 93.5 33.5 183t100 159t166.5 112.5t233 43q126 0 222.5 -38t163 -100.5t104 -143.5t45.5 -167.5t-13 -172t-71 -156.5l-544 -772h-42l403 563l85 113h-9l-70 -57q-58 -33 -123.5 -48.5t-150.5 -15.5q-133 0 -233 43t-166.5 112.5t-100 159t-33.5 183z M81 1052q0 -87 31.5 -170.5t93.5 -148.5t155.5 -105t218.5 -40t219 40t156.5 105t94 148.5t31.5 170.5t-31.5 170.5t-94 148.5t-156.5 105t-219 40t-218.5 -40t-155.5 -105t-93.5 -148.5t-31.5 -170.5z" />
<glyph unicode=":" horiz-adv-x="262" d="M85 26q0 27 14 38.5t31 11.5q15 0 28 -11.5t13 -38.5q0 -11 -13 -24.5t-28 -13.5q-9 0 -17 4t-14 10t-10 12.5t-4 11.5zM85 756q0 20 14 31t31 11q15 0 28 -11t13 -31q0 -16 -13 -29t-28 -13q-17 0 -31 13t-14 29z" />
<glyph unicode=";" horiz-adv-x="262" d="M3 -206l104 268h62l-130 -268h-36zM85 756q0 20 14 31t31 11q15 0 28 -11t13 -31q0 -16 -13 -29t-28 -13q-17 0 -31 13t-14 29z" />
<glyph unicode="&#x3c;" horiz-adv-x="936" d="M84 674v39l750 399v-51l-695 -367l695 -358v-51z" />
<glyph unicode="=" horiz-adv-x="1840" />
<glyph unicode="&#x3e;" horiz-adv-x="930" d="M98 281v51l697 356l-697 369v51l750 -399v-39z" />
<glyph unicode="?" horiz-adv-x="1063" d="M26 1273q27 58 69 108.5t100 87.5t130.5 58t161.5 21q125 0 222.5 -38.5t163.5 -102t99.5 -145.5t31.5 -169q-1 -90 -26.5 -153.5t-65 -109.5t-89.5 -78t-100 -59q-45 -20 -84.5 -41.5t-68.5 -50t-45 -66.5t-15 -90v-251h-38v257q0 57 20 97.5t53.5 72t77.5 56.5t91 49 q46 26 91 55t81.5 70t60 97t25.5 136q2 83 -29 161t-93 138t-153.5 96.5t-209.5 36.5q-83 0 -152 -20t-123.5 -54.5t-94.5 -81t-67 -100.5q-4 0 -14 3t-10 10zM454 26q0 14 11 25t25 11q15 0 25.5 -11t10.5 -25q0 -17 -10.5 -27.5t-25.5 -10.5q-14 0 -25 10.5t-11 27.5z" />
<glyph unicode="@" horiz-adv-x="1608" d="M111 692q2 93 25.5 185t67.5 176t107.5 156t145 125.5t180.5 83.5t213 30q142 0 262 -43.5t207 -121.5t136.5 -185t51.5 -234q1 -69 -13.5 -139.5t-41.5 -135t-66 -120t-87 -95t-105 -59t-119 -12.5q-22 2 -41.5 11.5t-33 28t-19 47t-0.5 67.5h-6q-21 -34 -52 -63.5 t-68.5 -50.5t-79 -32.5t-83.5 -9.5q-48 2 -93 26t-79.5 64t-55 94.5t-20.5 118.5q0 105 29 198.5t84.5 163.5t136.5 111t185 41q21 0 57 -7t72 -28t64 -60t34 -103l47 131h41l-158 -519q-8 -18 -13 -42.5t-5 -49.5q0 -40 21 -66t75 -26q75 0 139.5 45.5t111 119t73 165.5 t26.5 186q0 90 -25.5 168.5t-76.5 143.5l10 -11q-45 58 -103 102.5t-125 74.5t-140 45.5t-148 15.5q-107 0 -200.5 -28t-170.5 -77.5t-137 -117t-102 -146.5t-64.5 -166t-23.5 -176q-1 -84 14 -165.5t48 -154.5t84.5 -134.5t123 -106t164.5 -69.5t209 -25q42 0 92.5 9 t107.5 32l15 -39q-31 -12 -58.5 -20t-53.5 -12.5t-51 -6.5t-52 -2q-121 0 -220 26t-176 73t-133 111.5t-92 141.5t-53 164t-16 178zM489 604q0 -48 15 -94t43 -81.5t66.5 -57t86.5 -21.5q76 0 144.5 36t130.5 128q31 75 57.5 162t44.5 172q0 105 -53 165t-154 60 q-98 1 -170 -40t-119 -108.5t-69.5 -152t-22.5 -168.5z" />
<glyph unicode="A" d="M12 0l616 1578h39l623 -1578h-42l-211 519h-781l-206 -519h-38zM274 549h757l-384 978z" />
<glyph unicode="B" horiz-adv-x="1248" d="M101 0v1548h625q66 0 118 -18t92.5 -49t68.5 -71t46 -84q32 -72 32 -148t-32 -147q-26 -66 -68.5 -117.5t-111.5 -77.5q85 -15 148 -59t103 -105q40 -62 58 -136q14 -58 14 -117v-31q-4 -75 -31.5 -145t-77.5 -124t-122.5 -86.5t-167.5 -32.5h-694zM133 26h662 q92 0 161.5 34t115.5 89t69 125.5t23 144.5t-23 144.5t-69 125.5t-115.5 89t-161.5 34h-662v-786zM133 848h593q114 0 190 52t112 137q17 68 17 140t-17 136q-18 43 -46 80t-66 64.5t-85.5 43t-104.5 15.5h-593v-668z" />
<glyph unicode="C" horiz-adv-x="1578" d="M62 772q0 161 56.5 299t159.5 242q106 108 241 168.5t293 60.5q165 0 299.5 -60.5t240.5 -168.5q51 -49 90 -110.5t74 -128.5h-46q-27 66 -63 118t-81 101q-48 51 -106.5 91t-124.5 68t-137.5 43t-145.5 15q-146 0 -277 -57.5t-231 -159.5q-100 -100 -156.5 -235 t-56.5 -286q0 -158 56.5 -289.5t156.5 -231.5q49 -49 107.5 -90t123.5 -71t135 -47t142 -17q74 0 145.5 17t137.5 47t124.5 71t106.5 90q45 47 81 100t63 116h46q-35 -69 -74 -128t-90 -114q-106 -110 -240.5 -170.5t-299.5 -60.5q-158 0 -293 60.5t-241 170.5 q-103 106 -159.5 246.5t-56.5 300.5z" />
<glyph unicode="D" horiz-adv-x="1440" d="M101 0v1548h518q153 0 275.5 -43.5t214.5 -117.5t153 -173t92 -210.5t31 -229.5t-31 -229.5t-92 -210.5t-153 -173t-214.5 -117.5t-275.5 -43.5h-518zM133 26h486q147 0 264.5 41.5t205.5 113t147 167t88 203t29 220.5t-29 220.5t-88 203t-147 167t-205.5 113 t-264.5 41.5h-486v-1490z" />
<glyph unicode="E" horiz-adv-x="1017" d="M101 0v1548h859v-32h-827v-721h809v-39h-809v-730h830v-26h-854h-8z" />
<glyph unicode="F" horiz-adv-x="978" d="M101 0v1548h838v-32h-806v-721h715v-39h-715v-756h-32z" />
<glyph unicode="G" horiz-adv-x="1601" d="M62 772q0 161 56.5 304t159.5 250q106 109 241 171t296 62q116 0 225 -33t201 -94.5t163 -149.5t112 -198h-40q-39 104 -107 186t-155.5 139t-189.5 87.5t-209 30.5q-74 0 -144 -15.5t-135.5 -44.5t-124 -70t-107.5 -92q-48 -53 -87 -114t-67 -128t-43.5 -140t-15.5 -151 q0 -80 15.5 -154t43.5 -141.5t67 -128t87 -112.5q49 -51 107.5 -92t124 -70t135.5 -44.5t144 -15.5q117 0 232.5 44t212.5 121t165 182t91 227h-687v37h730q-5 -42 -14.5 -77t-22.5 -76q-25 -71 -68 -136t-98 -120.5t-120 -100t-135.5 -76t-143 -48.5t-142.5 -17 q-80 0 -154 17.5t-141.5 49t-128 74.5t-113.5 94q-103 107 -159.5 251t-56.5 312z" />
<glyph unicode="H" horiz-adv-x="1248" d="M101 0v1548h32v-750h971v750h39v-1548h-39v772h-971v-772h-32z" />
<glyph unicode="I" horiz-adv-x="750" d="M26 0v26h337v1490h-337v32h700v-32h-337v-1490h337v-26h-700z" />
<glyph unicode="J" horiz-adv-x="871" d="M26 0v29q150 0 280.5 37.5t228 114t153.5 194t56 278.5v863h-482v32h515v-895q0 -169 -59.5 -292t-161.5 -203.5t-238.5 -119t-291.5 -38.5z" />
<glyph unicode="K" horiz-adv-x="1051" d="M101 0v1548h32v-1548h-32zM186 756v39l774 753h41l-779 -771l874 -777h-51z" />
<glyph unicode="L" horiz-adv-x="1004" d="M101 0v1548h32v-1519h839v-29h-871z" />
<glyph unicode="M" horiz-adv-x="1565" d="M101 0v1548h32l647 -952l648 952h34v-1548h-34v1497l-633 -937h-23l-639 937v-1497h-32z" />
<glyph unicode="N" d="M101 0v1550l32 -2l1028 -1483v1483h37v-1548h-37l-1028 1476v-1476h-32z" />
<glyph unicode="O" horiz-adv-x="1680" d="M50 777q0 162 59.5 306t168.5 252q54 55 117.5 100t134 77t148 49t158.5 17t157.5 -17t147.5 -49t134.5 -77t118.5 -100q109 -108 171 -252t62 -306q0 -83 -16 -162.5t-46 -151.5t-73.5 -136.5t-97.5 -117.5q-55 -53 -118.5 -96.5t-134.5 -74t-147.5 -47.5t-157.5 -17 t-158.5 17t-148 47.5t-134 74t-117.5 96.5t-96.5 117.5t-72 136.5t-44.5 151.5t-15 162.5zM79 777q0 -81 16 -156.5t45.5 -143.5t71 -128.5t92.5 -112.5q102 -104 237.5 -164t294.5 -60q155 0 292.5 60t243.5 164q49 52 89.5 112.5t69.5 128.5t45 143.5t16 156.5 q0 78 -16 152t-45 141.5t-69.5 126.5t-89.5 108q-53 52 -114.5 95t-129.5 74t-141.5 48t-150.5 17q-79 0 -153 -17t-141.5 -48t-127 -74t-110.5 -95q-51 -49 -92.5 -108t-71 -126.5t-45.5 -141.5t-16 -152z" />
<glyph unicode="P" horiz-adv-x="1155" d="M101 0v1533v15h20h521q116 0 203 -41.5t145 -109t86.5 -154t28.5 -177t-28.5 -177t-86.5 -154t-145 -109t-203 -41.5h-509v-585h-32zM133 619h509q107 0 187 38.5t133 101.5t80 143.5t27 165t-27 165t-80 143.5t-133 101.5t-187 38.5h-509v-897z" />
<glyph unicode="Q" horiz-adv-x="1693" d="M56 777q0 162 61 306t173 252q52 55 114 100t133 77t149 49t162 17q81 0 157.5 -17t147 -49t134.5 -77t118 -100q54 -54 97 -117.5t74 -134.5t47.5 -148t16.5 -158q0 -83 -16.5 -162.5t-47.5 -151.5t-74 -136.5t-97 -117.5l238 -209h-54l-211 186q-109 -98 -243 -155 t-287 -57q-84 0 -162 17t-149 47.5t-133 74t-114 96.5q-56 53 -99.5 117.5t-73.5 136.5t-45.5 151.5t-15.5 162.5zM91 777q0 -164 59.5 -300t159.5 -241q51 -52 112 -93.5t130 -70.5t144 -44.5t152 -15.5q143 0 271.5 51.5t232.5 142.5l-475 413h62l439 -386v3 q104 105 163.5 241t59.5 300q0 158 -59.5 294t-163.5 234q-49 52 -109 95t-128.5 74t-142.5 48t-150 17q-77 0 -152 -17t-144 -48t-130 -74t-112 -95q-50 -49 -90.5 -108t-69 -126.5t-44 -141.5t-15.5 -152z" />
<glyph unicode="R" horiz-adv-x="1163" d="M101 0v1533v15h20h521q116 0 203 -39t145 -102.5t86.5 -145t28.5 -166.5t-28.5 -166.5t-86.5 -145t-145 -102.5t-203 -39h-256l715 -642h-50l-715 642v36h306q107 0 187 36t133 95t80 134t27 154t-27 154t-80 134t-133 95t-187 36h-509v-1516h-32z" />
<glyph unicode="S" horiz-adv-x="1211" d="M76 363v14h42v-11q4 -58 27.5 -107t60.5 -88t84.5 -68.5t100 -49t107 -29.5t104.5 -10q69 0 137.5 14.5t129.5 43t111.5 70t83.5 94.5q32 54 44 119q5 27 5 56q0 40 -9 85q-15 70 -51.5 115t-88 73t-115.5 42.5t-133 23t-140.5 14.5t-138.5 18t-127.5 33t-107 59 t-76 96.5t-35.5 145.5q-3 21 -3 43q0 47 14 94q20 68 61 125q42 53 101.5 91.5t129 61.5t145.5 31q36 4 71 3q40 -1 80 -5q74 -8 142.5 -33t124 -66t93.5 -99.5t51 -133.5l3 -17l-33 -6v20q-15 49 -33 90t-52 79q-76 76 -178 110q-90 30 -185 30q-14 0 -27 -1 q-54 0 -110.5 -11t-109 -32.5t-99.5 -54.5t-83 -77q-46 -51 -59 -113q-9 -45 -10 -92q0 -18 2 -37q7 -101 49.5 -161t109 -93t150 -46t172 -21.5t175.5 -19.5t160 -39t126.5 -81t73.5 -145q10 -48 9 -92q0 -32 -4 -62q-12 -72 -48 -130t-90 -103t-120 -75.5t-139.5 -46 t-148.5 -15.5q-56 0 -115 11t-114.5 32.5t-106 53t-90.5 73.5t-66 94t-34 113z" />
<glyph unicode="T" horiz-adv-x="1155" d="M23 1516v32h1102v-32h-540v-1528h-30v1528h-532z" />
<glyph unicode="U" horiz-adv-x="1305" d="M109 422v1126h32v-1129q0 -67 21.5 -123.5t59 -101.5t87.5 -78.5t107 -56t117.5 -34t119.5 -11.5q58 0 118 11.5t116.5 34t106.5 56.5t87 79.5t58.5 102t21.5 124.5v1126h31v-1129q0 -71 -22 -131t-60.5 -108t-90.5 -84.5t-112 -61t-125 -36.5t-129 -12q-63 0 -127.5 12 t-125 36.5t-113.5 61t-92.5 85t-62.5 109t-23 132.5z" />
<glyph unicode="V" horiz-adv-x="1305" d="M12 1548h38l603 -1525l601 1525h39l-617 -1574h-36z" />
<glyph unicode="W" horiz-adv-x="1879" d="M12 1548h33l495 -1503l379 1051h44l372 -1051l499 1503h32l-514 -1562h-36l-377 1082l-379 -1082h-28z" />
<glyph unicode="X" horiz-adv-x="1198" d="M26 0l554 772l-554 776h39l534 -745l544 745h38l-562 -776l562 -772h-38l-544 744l-534 -744h-39z" />
<glyph unicode="Y" horiz-adv-x="1192" d="M12 1548h38l543 -872l547 872h41l-570 -906v-642h-36v642z" />
<glyph unicode="Z" horiz-adv-x="1225" d="M26 26l1123 1490h-1076v32h1088l28 -45l-1121 -1477h1124v-26h-1147z" />
<glyph unicode="[" horiz-adv-x="549" d="M203 -141v1722h272v-41h-229v-1640h221v-41h-264z" />
<glyph unicode="\" horiz-adv-x="821" d="M90 1581h45l580 -1696h-45z" />
<glyph unicode="]" horiz-adv-x="518" d="M70 1540v41h272v-1722h-264v41h221v1640h-229z" />
<glyph unicode="^" horiz-adv-x="1001" d="M106 664l381 770h33l383 -770h-49l-350 708l-352 -708h-46z" />
<glyph unicode="_" horiz-adv-x="1184" d="M117 -18h940v-43h-940v43z" />
<glyph unicode="`" horiz-adv-x="540" d="M163 1769h62l124 -162h-39z" />
<glyph unicode="a" d="M12 0l616 1578h39l623 -1578h-42l-211 519h-781l-206 -519h-38zM274 549h757l-384 978z" />
<glyph unicode="b" horiz-adv-x="1248" d="M101 0v1548h625q66 0 118 -18t92.5 -49t68.5 -71t46 -84q32 -72 32 -148t-32 -147q-26 -66 -68.5 -117.5t-111.5 -77.5q85 -15 148 -59t103 -105q40 -62 58 -136q14 -58 14 -117v-31q-4 -75 -31.5 -145t-77.5 -124t-122.5 -86.5t-167.5 -32.5h-694zM133 26h662 q92 0 161.5 34t115.5 89t69 125.5t23 144.5t-23 144.5t-69 125.5t-115.5 89t-161.5 34h-662v-786zM133 848h593q114 0 190 52t112 137q17 68 17 140t-17 136q-18 43 -46 80t-66 64.5t-85.5 43t-104.5 15.5h-593v-668z" />
<glyph unicode="c" horiz-adv-x="1578" d="M62 772q0 161 56.5 299t159.5 242q106 108 241 168.5t293 60.5q165 0 299.5 -60.5t240.5 -168.5q51 -49 90 -110.5t74 -128.5h-46q-27 66 -63 118t-81 101q-48 51 -106.5 91t-124.5 68t-137.5 43t-145.5 15q-146 0 -277 -57.5t-231 -159.5q-100 -100 -156.5 -235 t-56.5 -286q0 -158 56.5 -289.5t156.5 -231.5q49 -49 107.5 -90t123.5 -71t135 -47t142 -17q74 0 145.5 17t137.5 47t124.5 71t106.5 90q45 47 81 100t63 116h46q-35 -69 -74 -128t-90 -114q-106 -110 -240.5 -170.5t-299.5 -60.5q-158 0 -293 60.5t-241 170.5 q-103 106 -159.5 246.5t-56.5 300.5z" />
<glyph unicode="d" horiz-adv-x="1440" d="M101 0v1548h518q153 0 275.5 -43.5t214.5 -117.5t153 -173t92 -210.5t31 -229.5t-31 -229.5t-92 -210.5t-153 -173t-214.5 -117.5t-275.5 -43.5h-518zM133 26h486q147 0 264.5 41.5t205.5 113t147 167t88 203t29 220.5t-29 220.5t-88 203t-147 167t-205.5 113 t-264.5 41.5h-486v-1490z" />
<glyph unicode="e" horiz-adv-x="1017" d="M101 0v1548h859v-32h-827v-721h809v-39h-809v-730h830v-26h-854h-8z" />
<glyph unicode="f" horiz-adv-x="978" d="M101 0v1548h838v-32h-806v-721h715v-39h-715v-756h-32z" />
<glyph unicode="g" horiz-adv-x="1598" d="M62 772q0 161 56.5 304t159.5 250q106 109 241 171t296 62q116 0 225 -33t201 -94.5t163 -149.5t112 -198h-40q-39 104 -107 186t-155.5 139t-189.5 87.5t-209 30.5q-74 0 -144 -15.5t-135.5 -44.5t-124 -70t-107.5 -92q-48 -53 -87 -114t-67 -128t-43.5 -140t-15.5 -151 q0 -80 15.5 -154t43.5 -141.5t67 -128t87 -112.5q49 -51 107.5 -92t124 -70t135.5 -44.5t144 -15.5q117 0 232.5 44t212.5 121t165 182t91 227h-687v37h730q-5 -42 -14.5 -77t-22.5 -76q-25 -71 -68 -136t-98 -120.5t-120 -100t-135.5 -76t-143 -48.5t-142.5 -17 q-80 0 -154 17.5t-141.5 49t-128 74.5t-113.5 94q-103 107 -159.5 251t-56.5 312z" />
<glyph unicode="h" horiz-adv-x="1248" d="M101 0v1548h32v-750h971v750h39v-1548h-39v772h-971v-772h-32z" />
<glyph unicode="i" horiz-adv-x="795" d="M50 0v26h327v1490h-327v32h694v-32h-325v-1490h325v-26h-694z" />
<glyph unicode="j" horiz-adv-x="871" d="M14 0v29q152 0 283.5 37.5t229 114t153 194t55.5 278.5v863h-473v32h510v-895q0 -169 -59 -292t-161.5 -203.5t-241 -119t-296.5 -38.5z" />
<glyph unicode="k" horiz-adv-x="1051" d="M101 0v1548h32v-1548h-32zM186 756v39l812 753h39l-815 -771l852 -777h-43z" />
<glyph unicode="l" horiz-adv-x="1004" d="M101 0v1548h32v-1519h839v-29h-871z" />
<glyph unicode="m" horiz-adv-x="1565" d="M101 0v1548h32l647 -952l648 952h34v-1548h-34v1497l-633 -937h-23l-639 937v-1497h-32z" />
<glyph unicode="n" d="M101 0v1550l32 -2l1028 -1483v1483h37v-1548h-37l-1028 1476v-1476h-32z" />
<glyph unicode="o" horiz-adv-x="1705" d="M65 777q0 162 60.5 306t172.5 252q52 55 115.5 100t135 77t149.5 49t159 17q80 0 156 -17t146 -49t133.5 -77t118.5 -100q53 -54 96 -117.5t73 -134.5t46.5 -148t16.5 -158q0 -83 -16.5 -162.5t-46.5 -151.5t-73 -136.5t-96 -117.5q-55 -53 -118.5 -96.5t-133.5 -74 t-146 -47.5t-156 -17q-81 0 -159 17t-149.5 47.5t-135 74t-115.5 96.5q-112 107 -172.5 253.5t-60.5 314.5zM98 777q0 -81 16 -156.5t44.5 -143.5t68.5 -128.5t88 -112.5q52 -52 113.5 -93.5t130.5 -70.5t144 -44.5t154 -15.5q155 0 291 60t246 164q100 105 156.5 241 t56.5 300q0 158 -56.5 294t-156.5 234q-55 52 -116.5 95t-129.5 74t-141 48t-150 17q-79 0 -154 -17t-144 -48t-130.5 -74t-113.5 -95q-48 -49 -88 -108t-68.5 -126.5t-44.5 -141.5t-16 -152z" />
<glyph unicode="p" horiz-adv-x="1161" d="M101 0v1533v15h20h521q116 0 203 -41.5t145 -109t86.5 -154t28.5 -177t-28.5 -177t-86.5 -154t-145 -109t-203 -41.5h-509v-585h-32zM133 619h509q107 0 187 38.5t133 101.5t80 143.5t27 165t-27 165t-80 143.5t-133 101.5t-187 38.5h-509v-897z" />
<glyph unicode="q" horiz-adv-x="1693" d="M50 777q0 108 28.5 209t79.5 190t123 163t159.5 127t187.5 82.5t208 29.5q107 0 207.5 -29t188.5 -81.5t161.5 -126t126 -162.5t81.5 -191t29 -211q0 -83 -16.5 -162.5t-47 -151.5t-74.5 -136.5t-98 -117.5l240 -209h-56l-211 186q-105 -98 -242 -155t-289 -57 q-108 0 -208 29t-187.5 81.5t-159.5 126t-123 162.5t-79.5 191.5t-28.5 212.5zM79 777q0 -105 27.5 -202.5t77 -182.5t119 -155t153.5 -120t180 -77.5t200 -27.5q147 0 276 51.5t229 142.5l-470 413h53l443 -386l5 3q49 52 89.5 112.5t69.5 128.5t45 143.5t16 156.5 q0 104 -27.5 200.5t-77 181.5t-119 155t-153.5 120t-180 77.5t-199 27.5t-199.5 -28t-180.5 -78t-153.5 -120.5t-119 -155t-77 -181t-27.5 -199.5z" />
<glyph unicode="r" horiz-adv-x="1169" d="M101 0v1533v15h20h521q116 0 203 -39t145 -102.5t86.5 -145t28.5 -166.5t-28.5 -166.5t-86.5 -145t-145 -102.5t-203 -39h-256l715 -642h-50l-715 642v36h306q107 0 187 36t133 95t80 134t27 154t-27 154t-80 134t-133 95t-187 36h-509v-1516h-32z" />
<glyph unicode="s" horiz-adv-x="1202" d="M62 377h29l7 -11q6 -58 30 -107t60.5 -88t84 -68.5t100 -49t107.5 -29.5t108 -10q67 0 135 14.5t129.5 43t112.5 70t85 94.5q34 54 46 119q6 30 5 61q0 38 -8 80q-16 70 -53.5 115t-89.5 73t-116 42.5t-133 23t-140.5 14.5t-139 18t-127.5 33t-106.5 59t-76 96.5 t-35.5 145.5q-2 18 -2 35q0 51 14 102q18 68 62 125q56 71 142 115.5t184 61.5q58 10 118 10q40 -1 80 -5q100 -12 186.5 -52t149 -110t83.5 -170v-17l-42 -6v20q-11 49 -31.5 90t-50.5 79q-37 37 -82 64.5t-95 44.5t-104 25q-42 6 -85 5h-23q-54 0 -110 -11t-109 -32.5 t-100.5 -54.5t-83.5 -77q-42 -51 -58 -113q-12 -45 -12 -93q0 -18 2 -36q6 -81 35 -135t75 -88.5t105.5 -53t126.5 -29t138 -16.5t140 -14.5t133 -24t116.5 -45.5t91 -78t55.5 -122q9 -46 9 -89q0 -33 -6 -65q-14 -72 -49 -130t-89.5 -103t-120 -75.5t-138.5 -46t-146 -15.5 q-55 0 -114 11t-115 32.5t-106.5 53t-90 73.5t-64.5 94t-30 113z" />
<glyph unicode="t" horiz-adv-x="1155" d="M23 1516v32h1102v-32h-540v-1516h-30v1516h-532z" />
<glyph unicode="u" horiz-adv-x="1290" d="M101 422v1126h32v-1129q0 -101 46 -177t119.5 -126.5t164 -76t179.5 -25.5q59 0 119.5 11.5t116.5 34t105.5 56.5t86.5 79.5t58 102t21 124.5v1126h35v-1129q0 -71 -22 -131t-61 -108t-91 -84.5t-112.5 -61t-125.5 -36.5t-130 -12q-97 0 -193.5 27.5t-174 82 t-125.5 136.5t-48 190z" />
<glyph unicode="v" horiz-adv-x="1305" d="M12 1548h38l603 -1525l601 1525h39l-617 -1574h-36z" />
<glyph unicode="w" horiz-adv-x="1879" d="M12 1548h33l495 -1503l379 1051h44l372 -1051l499 1503h32l-514 -1562h-36l-377 1082l-379 -1082h-28z" />
<glyph unicode="x" horiz-adv-x="1198" d="M26 0l554 772l-554 776h39l534 -745l544 745h38l-562 -776l562 -772h-38l-544 744l-534 -744h-39z" />
<glyph unicode="y" horiz-adv-x="1192" d="M12 1548h38l543 -872l547 872h41l-570 -906v-642h-36v642z" />
<glyph unicode="z" horiz-adv-x="1225" d="M26 26l1123 1490h-1076v32h1088l23 -45l-1116 -1477h1124v-26h-1147z" />
<glyph unicode="{" horiz-adv-x="553" d="M119 684v61q40 14 67 42t43.5 66t23.5 85t7 98v359q0 41 9.5 76.5t29.5 61t51.5 40t75.5 14.5h37v-39q-36 1 -65 -3.5t-50 -21t-32 -47t-11 -81.5v-361q0 -132 -37 -208t-112 -111v-2q40 -18 68.5 -49.5t46.5 -72t26 -87.5t8 -98v-349q0 -46 11 -76.5t31.5 -48.5 t49.5 -25.5t66 -8.5v-37q-58 0 -97 13.5t-62.5 38t-33.5 60t-10 80.5v348q0 51 -8 96t-25 82t-44 63.5t-64 41.5z" />
<glyph unicode="|" horiz-adv-x="434" d="M195 -305v1859h47v-1859h-47z" />
<glyph unicode="}" horiz-adv-x="553" d="M119 -102q37 1 66 8.5t49.5 25.5t31.5 48.5t11 76.5v349q0 51 8 98t26 87.5t46 72t69 49.5v2q-75 35 -112 111t-37 208v361q0 51 -11 81.5t-32 47t-50 21t-65 3.5v39h37q44 0 75.5 -14.5t51.5 -40t29.5 -61t9.5 -76.5v-359q0 -51 7 -98t23.5 -85t43.5 -66t67 -42v-61 q-38 -15 -64.5 -41.5t-43.5 -63.5t-25 -82t-8 -96v-348q0 -45 -10 -80.5t-33.5 -60t-62.5 -38t-97 -13.5v37z" />
<glyph unicode="~" horiz-adv-x="1071" d="M102 643q46 75 97.5 109.5t107.5 39t116 -15t122 -53.5q55 -32 106.5 -48t98.5 -11t90 34.5t82 89.5l30 -18q-41 -69 -89.5 -103.5t-103 -41t-114.5 10.5t-123 52q-59 32 -110.5 49t-98.5 12t-92 -35t-90 -91z" />
<glyph unicode="&#xa1;" horiz-adv-x="236" d="M76 1510q0 13 11 21t31 8q11 0 21.5 -8t10.5 -21q0 -16 -10.5 -28t-21.5 -12q-20 0 -31 12t-11 28zM98 -12v1347h35v-1347h-35z" />
<glyph unicode="&#xa5;" horiz-adv-x="1192" d="M12 1548h38l543 -872l547 872h41l-541 -881h237v-27h-266v-108h266v-39h-266v-493h-36v493h-239v39h239v108h-239v27h224z" />
<glyph unicode="&#xa8;" horiz-adv-x="678" d="M163 1689q0 23 13.5 32.5t26.5 9.5q20 0 32.5 -9.5t12.5 -32.5q0 -15 -12.5 -26.5t-32.5 -11.5q-13 0 -26.5 11.5t-13.5 26.5zM431 1689q0 23 12.5 32.5t28.5 9.5q18 0 31 -9.5t13 -32.5q0 -15 -13 -26.5t-31 -11.5q-16 0 -28.5 11.5t-12.5 26.5z" />
<glyph unicode="&#xad;" horiz-adv-x="786" d="M127 694v45h504v-45h-504z" />
<glyph unicode="&#xb0;" horiz-adv-x="1840" />
<glyph unicode="&#xb4;" horiz-adv-x="540" d="M171 1598l133 171h59l-144 -171h-48z" />
<glyph unicode="&#xb7;" horiz-adv-x="366" d="M133 726q0 18 12 32t32 14t32.5 -14t12.5 -32q0 -17 -12.5 -25t-32.5 -8t-32 8t-12 25z" />
<glyph unicode="&#xbf;" horiz-adv-x="1074" d="M65 445q1 90 26 153t64.5 108t89.5 75.5t101 54.5q42 24 81 47.5t68.5 52t47 66t17.5 91.5v248h33v-257q0 -60 -20.5 -102t-54.5 -73t-78 -56t-91 -50q-47 -23 -91.5 -51.5t-79.5 -69t-57 -96.5t-23 -135q-3 -85 27.5 -162t91 -135.5t151 -93t207.5 -34.5q84 0 153 19 t123.5 52t94 78.5t63.5 98.5q17 0 22 -6t11 -6q-26 -58 -69 -108t-102 -87t-133 -58t-163 -21q-124 0 -219.5 38t-160.5 101t-98 145.5t-32 172.5zM540 1516q0 13 12 22.5t23 9.5q16 0 26 -9.5t10 -22.5q0 -17 -10 -28.5t-26 -11.5q-11 0 -23 11.5t-12 28.5z" />
<glyph unicode="&#xc0;" d="M12 0l616 1578h39l623 -1578h-42l-211 519h-781l-206 -519h-38zM274 549h757l-384 978zM478 1792h59l130 -165h-42z" />
<glyph unicode="&#xc1;" d="M12 0l616 1578h39l623 -1578h-42l-211 519h-781l-206 -519h-38zM274 549h757l-384 978zM625 1627l131 165h56l-145 -165h-42z" />
<glyph unicode="&#xc2;" d="M12 0l616 1578h39l623 -1578h-42l-211 519h-781l-206 -519h-38zM274 549h757l-384 978zM490 1624l129 157h59l131 -157h-37l-125 124l-115 -124h-42z" />
<glyph unicode="&#xc3;" d="M12 0l616 1578h39l623 -1578h-42l-211 519h-781l-206 -519h-38zM274 549h757l-384 978zM459 1640q8 30 24.5 51.5t48.5 30.5q16 9 36 9t39.5 -6.5t37.5 -18t31 -26.5q15 -22 41.5 -28t54.5 2q17 7 30.5 22.5t18.5 42.5l33 -3q-14 -29 -32 -54t-42 -35q-34 -15 -69 -4.5 t-58 37.5q-26 25 -59.5 35.5t-61.5 -2.5q-14 -8 -28.5 -24t-16.5 -39z" />
<glyph unicode="&#xc4;" d="M12 0l616 1578h39l623 -1578h-42l-211 519h-781l-206 -519h-38zM274 549h757l-384 978zM472 1693q0 20 12 30t29 10q18 0 32.5 -10t14.5 -30q0 -12 -14.5 -27t-32.5 -15q-17 0 -29 15t-12 27zM741 1693q0 20 11.5 30t27.5 10q41 0 41 -40q0 -12 -9.5 -27t-31.5 -15 q-16 0 -27.5 15t-11.5 27z" />
<glyph unicode="&#xc5;" d="M12 0l616 1578h39l623 -1578h-42l-211 519h-781l-206 -519h-38zM274 549h757l-384 978zM532 1660q0 47 32 78t83 31q21 0 41.5 -8.5t36 -23t25 -34.5t9.5 -43t-9.5 -43.5t-25.5 -35.5t-37.5 -24t-44.5 -9t-43 9t-35 24t-23.5 35.5t-8.5 43.5zM575 1660q0 -32 19 -51.5 t53 -19.5q28 0 47.5 19.5t19.5 51.5q0 29 -19.5 50t-47.5 21q-34 0 -53 -21t-19 -50z" />
<glyph unicode="&#xc6;" horiz-adv-x="1831" d="M12 0l859 1548h942v-32h-827v-855h804v-33h-804v-602h827v-26h-858v628h-550l-355 -628h-38zM422 661h533v855h-54z" />
<glyph unicode="&#xc7;" horiz-adv-x="1548" d="M56 772q0 161 57.5 299t160.5 242q105 108 241 168.5t297 60.5q155 0 292.5 -60.5t241.5 -168.5q49 -49 89.5 -110.5t67.5 -128.5h-36q-27 66 -63.5 118t-80.5 101q-99 102 -230.5 159.5t-280.5 57.5q-152 0 -283.5 -57.5t-227.5 -159.5q-50 -50 -89.5 -109t-68 -126 t-43.5 -139t-15 -147q0 -158 58 -289.5t158 -231.5q48 -49 105.5 -90t122.5 -71t136.5 -47t146.5 -17q74 0 144.5 17t135.5 47t123.5 71t107.5 90q44 47 80.5 100t63.5 116h36q-27 -69 -67.5 -128t-89.5 -114q-102 -106 -235 -166t-296 -65l-43 -115q30 0 61 -7t52 -22 q29 -16 54.5 -41.5t32.5 -59.5q0 -8 3 -16t3 -11q0 -11 -3 -18t-3 -14q-7 -31 -32.5 -56t-54.5 -39q-28 -22 -65.5 -31t-75.5 -9q-49 0 -97 17q-41 15 -71.5 43.5t-43.5 69.5l31 2q0 -2 3.5 -9t8.5 -14q9 -19 28 -34t43 -26t49.5 -17t48.5 -6q32 0 66.5 10t60.5 29 q57 25 71 79v23v16q-7 26 -24.5 48t-46.5 37q-38 20 -72.5 28.5t-72.5 10.5l57 132q-149 7 -279.5 66t-229.5 165q-103 106 -160.5 246.5t-57.5 300.5z" />
<glyph unicode="&#xc8;" horiz-adv-x="972" d="M101 0v1548h859v-32h-827v-721h809v-39h-809v-730h830v-26h-854h-8zM408 1792h64l124 -165h-36z" />
<glyph unicode="&#xc9;" horiz-adv-x="972" d="M101 0v1548h859v-32h-827v-721h809v-39h-809v-730h830v-26h-854h-8zM478 1624l130 166h59l-141 -166h-48z" />
<glyph unicode="&#xca;" horiz-adv-x="972" d="M101 0v1548h859v-32h-827v-721h809v-39h-809v-730h830v-26h-854h-8zM402 1618l130 157h53l127 -157h-34l-118 130l-129 -130h-29z" />
<glyph unicode="&#xcb;" horiz-adv-x="972" d="M101 0v1548h859v-32h-827v-721h809v-39h-809v-730h830v-26h-854h-8zM375 1683q0 48 38 48q41 0 41 -48q0 -15 -10.5 -27.5t-30.5 -12.5t-29 12.5t-9 27.5zM642 1683q0 48 39 48q17 0 31 -11.5t14 -36.5q0 -15 -14 -27.5t-31 -12.5q-20 0 -29.5 12.5t-9.5 27.5z" />
<glyph unicode="&#xcc;" horiz-adv-x="750" d="M26 0v26h337v1490h-337v32h700v-32h-337v-1490h337v-26h-700zM209 1792h65l131 -165h-42z" />
<glyph unicode="&#xcd;" horiz-adv-x="750" d="M26 0v26h337v1490h-337v32h700v-32h-337v-1490h337v-26h-700zM351 1627l127 165h62l-138 -165h-51z" />
<glyph unicode="&#xce;" horiz-adv-x="750" d="M26 0v26h337v1490h-337v32h700v-32h-337v-1490h337v-26h-700zM222 1624l124 157h59l127 -157h-36l-119 124l-121 -124h-34z" />
<glyph unicode="&#xcf;" horiz-adv-x="750" d="M26 0v26h337v1490h-337v32h700v-32h-337v-1490h337v-26h-700zM203 1689q0 23 12.5 32.5t29.5 9.5q22 0 33.5 -9.5t11.5 -32.5q0 -15 -11.5 -26.5t-33.5 -11.5q-17 0 -29.5 11.5t-12.5 26.5zM472 1689q0 23 10.5 32.5t30.5 9.5q14 0 28 -9.5t14 -32.5q0 -15 -14 -26.5 t-28 -11.5q-20 0 -30.5 11.5t-10.5 26.5z" />
<glyph unicode="&#xd0;" horiz-adv-x="1440" d="M101 0v1548h518q153 0 275.5 -43.5t214.5 -117.5t153 -173t92 -210.5t31 -229.5t-31 -229.5t-92 -210.5t-153 -173t-214.5 -117.5t-275.5 -43.5h-518zM133 26h486q147 0 264.5 41.5t205.5 113t147 167t88 203t29 220.5t-29 220.5t-88 203t-147 167t-205.5 113 t-264.5 41.5h-486v-1490z" />
<glyph unicode="&#xd1;" d="M101 0v1550l32 -2l1028 -1483v1483h37v-1548h-37l-1028 1476v-1476h-32zM472 1643q5 30 23.5 55.5t41.5 32.5q19 10 39.5 10.5t40.5 -6t39.5 -18.5t36.5 -28q14 -22 38.5 -27.5t51.5 1.5q22 13 35 28.5t18 39.5l26 -9q-4 -32 -22.5 -53t-44.5 -29q-36 -17 -72 -9.5 t-62 32.5q-8 16 -22 27t-30 16.5t-32 6t-28 -5.5q-17 -6 -29.5 -22t-23.5 -42h-24z" />
<glyph unicode="&#xd2;" horiz-adv-x="1660" d="M45 777q0 81 16 158t45.5 148t72 134.5t95.5 117.5q54 55 117 100t133 77t146.5 49t158.5 17q83 0 161.5 -17t149.5 -49t135 -77t119 -100q52 -54 94.5 -117.5t72.5 -134.5t46.5 -148t16.5 -158q0 -83 -16.5 -162.5t-46.5 -151.5t-72.5 -136.5t-94.5 -117.5 q-55 -53 -119 -96.5t-135 -74t-149.5 -47.5t-161.5 -17q-82 0 -158.5 17t-146.5 47.5t-133 74t-117 96.5q-53 53 -95.5 117.5t-72 136.5t-45.5 151.5t-16 162.5zM76 777q0 -164 60.5 -300t164.5 -241q102 -104 236 -164t292 -60q157 0 295 60t243 164q50 52 91 112.5 t70 128.5t45 143.5t16 156.5q0 78 -16 152t-45 141.5t-70 126.5t-91 108q-52 52 -113.5 95t-129.5 74t-142.5 48t-152.5 17q-79 0 -152 -17t-140 -48t-126 -74t-110 -95q-104 -98 -164.5 -234t-60.5 -294zM676 1813h56l130 -170h-47z" />
<glyph unicode="&#xd3;" horiz-adv-x="1660" d="M45 777q0 81 16 158t45.5 148t72 134.5t95.5 117.5q54 55 117 100t133 77t146.5 49t158.5 17q83 0 161.5 -17t149.5 -49t135 -77t119 -100q52 -54 94.5 -117.5t72.5 -134.5t46.5 -148t16.5 -158q0 -83 -16.5 -162.5t-46.5 -151.5t-72.5 -136.5t-94.5 -117.5 q-55 -53 -119 -96.5t-135 -74t-149.5 -47.5t-161.5 -17q-82 0 -158.5 17t-146.5 47.5t-133 74t-117 96.5q-53 53 -95.5 117.5t-72 136.5t-45.5 151.5t-16 162.5zM76 777q0 -164 60.5 -300t164.5 -241q102 -104 236 -164t292 -60q157 0 295 60t243 164q50 52 91 112.5 t70 128.5t45 143.5t16 156.5q0 78 -16 152t-45 141.5t-70 126.5t-91 108q-52 52 -113.5 95t-129.5 74t-142.5 48t-152.5 17q-79 0 -152 -17t-140 -48t-126 -74t-110 -95q-104 -98 -164.5 -234t-60.5 -294zM821 1643l129 170h59l-141 -170h-47z" />
<glyph unicode="&#xd4;" horiz-adv-x="1660" d="M45 777q0 81 16 158t45.5 148t72 134.5t95.5 117.5q54 55 117 100t133 77t146.5 49t158.5 17q83 0 161.5 -17t149.5 -49t135 -77t119 -100q52 -54 94.5 -117.5t72.5 -134.5t46.5 -148t16.5 -158q0 -83 -16.5 -162.5t-46.5 -151.5t-72.5 -136.5t-94.5 -117.5 q-55 -53 -119 -96.5t-135 -74t-149.5 -47.5t-161.5 -17q-82 0 -158.5 17t-146.5 47.5t-133 74t-117 96.5q-53 53 -95.5 117.5t-72 136.5t-45.5 151.5t-16 162.5zM76 777q0 -164 60.5 -300t164.5 -241q102 -104 236 -164t292 -60q157 0 295 60t243 164q50 52 91 112.5 t70 128.5t45 143.5t16 156.5q0 78 -16 152t-45 141.5t-70 126.5t-91 108q-52 52 -113.5 95t-129.5 74t-142.5 48t-152.5 17q-79 0 -152 -17t-140 -48t-126 -74t-110 -95q-104 -98 -164.5 -234t-60.5 -294zM676 1630l127 162h59l130 -162h-32l-124 139l-132 -139h-28z" />
<glyph unicode="&#xd5;" horiz-adv-x="1660" d="M45 777q0 81 16 158t45.5 148t72 134.5t95.5 117.5q54 55 117 100t133 77t146.5 49t158.5 17q83 0 161.5 -17t149.5 -49t135 -77t119 -100q52 -54 94.5 -117.5t72.5 -134.5t46.5 -148t16.5 -158q0 -83 -16.5 -162.5t-46.5 -151.5t-72.5 -136.5t-94.5 -117.5 q-55 -53 -119 -96.5t-135 -74t-149.5 -47.5t-161.5 -17q-82 0 -158.5 17t-146.5 47.5t-133 74t-117 96.5q-53 53 -95.5 117.5t-72 136.5t-45.5 151.5t-16 162.5zM76 777q0 -164 60.5 -300t164.5 -241q102 -104 236 -164t292 -60q157 0 295 60t243 164q50 52 91 112.5 t70 128.5t45 143.5t16 156.5q0 78 -16 152t-45 141.5t-70 126.5t-91 108q-52 52 -113.5 95t-129.5 74t-142.5 48t-152.5 17q-79 0 -152 -17t-140 -48t-126 -74t-110 -95q-104 -98 -164.5 -234t-60.5 -294zM647 1660q5 29 22 51.5t43 33.5q19 9 39.5 9t39 -6t35.5 -17.5 t31 -25.5q20 -21 48 -29.5t55 4.5q15 2 30 20t19 42l25 -11q-2 -29 -22 -52t-46 -36q-32 -10 -68 -0.5t-62 37.5q-25 27 -57.5 37.5t-64.5 1.5q-14 -9 -25 -26.5t-13 -41.5z" />
<glyph unicode="&#xd6;" horiz-adv-x="1660" d="M45 777q0 81 16 158t45.5 148t72 134.5t95.5 117.5q54 55 117 100t133 77t146.5 49t158.5 17q83 0 161.5 -17t149.5 -49t135 -77t119 -100q52 -54 94.5 -117.5t72.5 -134.5t46.5 -148t16.5 -158q0 -83 -16.5 -162.5t-46.5 -151.5t-72.5 -136.5t-94.5 -117.5 q-55 -53 -119 -96.5t-135 -74t-149.5 -47.5t-161.5 -17q-82 0 -158.5 17t-146.5 47.5t-133 74t-117 96.5q-53 53 -95.5 117.5t-72 136.5t-45.5 151.5t-16 162.5zM76 777q0 -164 60.5 -300t164.5 -241q102 -104 236 -164t292 -60q157 0 295 60t243 164q50 52 91 112.5 t70 128.5t45 143.5t16 156.5q0 78 -16 152t-45 141.5t-70 126.5t-91 108q-52 52 -113.5 95t-129.5 74t-142.5 48t-152.5 17q-79 0 -152 -17t-140 -48t-126 -74t-110 -95q-104 -98 -164.5 -234t-60.5 -294zM653 1699q0 20 13.5 31.5t26.5 11.5q23 0 35.5 -11.5t12.5 -31.5 q0 -14 -12.5 -26.5t-35.5 -12.5q-13 0 -26.5 12.5t-13.5 26.5zM924 1699q0 20 11.5 31.5t27.5 11.5q17 0 29 -11.5t12 -31.5q0 -14 -12 -26.5t-29 -12.5q-16 0 -27.5 12.5t-11.5 26.5z" />
<glyph unicode="&#xd8;" horiz-adv-x="1660" d="M45 777q0 81 16 158t45.5 148t72 134.5t95.5 117.5q54 55 117 100t133 77t146.5 49t158.5 17q114 0 220 -33.5t199 -91.5l98 165h48l-121 -187q30 -20 62 -44t59 -52q52 -54 94.5 -117.5t72.5 -134.5t46.5 -148t16.5 -158q0 -83 -16.5 -162.5t-46.5 -151.5t-72.5 -136.5 t-94.5 -117.5q-55 -53 -119 -96.5t-135 -74t-149.5 -47.5t-161.5 -17q-56 0 -111 8.5t-107.5 24.5t-101 37t-90.5 47l-112 -170h-45l121 197q-28 15 -56 41t-53 50q-53 53 -95.5 117.5t-72 136.5t-45.5 151.5t-16 162.5zM76 777q0 -164 60.5 -300t164.5 -241 q22 -25 48.5 -48.5t55.5 -46.5l820 1287q-91 52 -189.5 81.5t-206.5 29.5q-79 0 -152 -17t-140 -48t-126 -74t-110 -95q-104 -98 -164.5 -234t-60.5 -294zM436 127q85 -58 187.5 -86.5t205.5 -28.5q157 0 295 60t243 164q50 52 91 112.5t70 128.5t45 143.5t16 156.5 q0 78 -16 152t-45 141.5t-70 126.5t-91 108q-26 29 -55.5 54t-63.5 44z" />
<glyph unicode="&#xd9;" horiz-adv-x="1290" d="M101 422v1126h32v-1129q0 -101 46 -177t119.5 -126.5t164 -76t179.5 -25.5q59 0 119.5 11.5t116.5 34t105.5 56.5t86.5 79.5t58 102t21 124.5v1126h35v-1129q0 -72 -22 -131.5t-61 -107.5t-91 -84.5t-112.5 -61t-125.5 -36.5t-130 -12q-97 0 -193.5 27.5t-174 82 t-125.5 136.5t-48 190zM532 1792h53l129 -165h-38z" />
<glyph unicode="&#xda;" horiz-adv-x="1290" d="M101 422v1126h32v-1129q0 -101 46 -177t119.5 -126.5t164 -76t179.5 -25.5q59 0 119.5 11.5t116.5 34t105.5 56.5t86.5 79.5t58 102t21 124.5v1126h35v-1129q0 -71 -22 -131t-61 -108t-91 -84.5t-112.5 -61t-125.5 -36.5t-130 -12q-97 0 -193.5 27.5t-174 82 t-125.5 136.5t-48 190zM608 1627l133 165h57l-145 -165h-45z" />
<glyph unicode="&#xdb;" horiz-adv-x="1290" d="M101 422v1126h32v-1129q0 -101 46 -177t119.5 -126.5t164 -76t179.5 -25.5q59 0 119.5 11.5t116.5 34t105.5 56.5t86.5 79.5t58 102t21 124.5v1126h35v-1129q0 -71 -22 -131t-61 -108t-91 -84.5t-112.5 -61t-125.5 -36.5t-130 -12q-97 0 -193.5 27.5t-174 82 t-125.5 136.5t-48 190zM487 1624l132 157h59l125 -157h-31l-125 124l-121 -124h-39z" />
<glyph unicode="&#xdc;" horiz-adv-x="1290" d="M101 422v1126h32v-1129q0 -101 46 -177t119.5 -126.5t164 -76t179.5 -25.5q59 0 119.5 11.5t116.5 34t105.5 56.5t86.5 79.5t58 102t21 124.5v1126h35v-1129q0 -72 -22 -131.5t-61 -107.5t-91 -84.5t-112.5 -61t-125.5 -36.5t-130 -12q-97 0 -193.5 27.5t-174 82 t-125.5 136.5t-48 190zM490 1689q0 23 12.5 32.5t29.5 9.5q21 0 32 -9.5t11 -32.5q0 -15 -11 -26.5t-32 -11.5q-17 0 -29.5 11.5t-12.5 26.5zM759 1689q0 23 11.5 32.5t27.5 9.5q17 0 30.5 -9.5t13.5 -32.5q0 -15 -13.5 -26.5t-30.5 -11.5q-16 0 -27.5 11.5t-11.5 26.5z" />
<glyph unicode="&#xdd;" horiz-adv-x="1192" d="M12 1548h38l543 -872l547 872h41l-570 -906v-642h-36v642zM549 1601l132 168h60l-148 -168h-44z" />
<glyph unicode="&#xe0;" d="M12 0l616 1578h39l623 -1578h-42l-211 519h-781l-206 -519h-38zM274 549h757l-384 978zM487 1787h62l129 -169h-38z" />
<glyph unicode="&#xe1;" d="M12 0l616 1578h39l623 -1578h-42l-211 519h-781l-206 -519h-38zM274 549h757l-384 978zM619 1612l131 163h62l-151 -163h-42z" />
<glyph unicode="&#xe2;" d="M12 0l616 1578h39l623 -1578h-42l-211 519h-781l-206 -519h-38zM274 549h757l-384 978zM490 1607l129 162h59l131 -162h-37l-125 135l-115 -135h-42z" />
<glyph unicode="&#xe3;" d="M12 0l616 1578h39l623 -1578h-42l-211 519h-781l-206 -519h-38zM274 549h757l-384 978zM454 1630q10 29 26.5 53.5t45.5 35.5q18 5 38.5 4.5t40 -6t36 -15.5t26.5 -25q20 -26 46.5 -31t50.5 -3q23 13 36 29.5t15 43.5l33 -9q-9 -33 -27 -56.5t-44 -32.5q-34 -13 -69 -2.5 t-61 35.5q-14 12 -29 21.5t-30.5 14.5t-29.5 4.5t-26 -8.5q-17 -2 -32 -17t-22 -42z" />
<glyph unicode="&#xe4;" d="M12 0l616 1578h39l623 -1578h-42l-211 519h-781l-206 -519h-38zM274 549h757l-384 978zM472 1689q0 23 12 32.5t29 9.5q18 0 32.5 -9.5t14.5 -32.5q0 -15 -14.5 -26.5t-32.5 -11.5q-17 0 -29 11.5t-12 26.5zM741 1689q0 23 11.5 32.5t27.5 9.5q22 0 31.5 -9.5t9.5 -32.5 q0 -15 -9.5 -26.5t-31.5 -11.5q-16 0 -27.5 11.5t-11.5 26.5z" />
<glyph unicode="&#xe5;" d="M12 0l616 1578h39l623 -1578h-42l-211 519h-781l-206 -519h-38zM274 549h757l-384 978zM537 1660q0 24 8.5 45t23.5 36.5t35 24.5t43 9q24 0 45.5 -9t37.5 -24.5t25 -36.5t9 -45q0 -23 -9 -43t-25 -35t-37.5 -23.5t-45.5 -8.5q-23 0 -43 9t-35 24t-23.5 35t-8.5 42z M575 1660q0 -27 21.5 -47.5t50.5 -20.5q35 0 57 20.5t22 47.5q0 34 -22 53.5t-57 19.5q-29 0 -50.5 -19.5t-21.5 -53.5z" />
<glyph unicode="&#xe6;" horiz-adv-x="1831" d="M12 0l859 1548h942v-32h-827v-855h804v-33h-804v-602h827v-26h-858v628h-550l-355 -628h-38zM422 661h533v855h-54z" />
<glyph unicode="&#xe7;" horiz-adv-x="1456" d="M0 772q0 161 59.5 299t162.5 242q51 54 111.5 96.5t128.5 72t142 45t152 15.5q158 0 295.5 -60.5t241.5 -168.5q51 -49 88.5 -110.5t61.5 -128.5h-32q-25 66 -62.5 118t-84.5 101q-94 102 -224 159.5t-284 57.5q-148 0 -280.5 -57.5t-230.5 -159.5q-48 -50 -88 -109 t-69 -126t-45.5 -139t-16.5 -147q0 -78 16.5 -151t45.5 -138.5t69 -124t88 -107.5q49 -49 107 -90t123.5 -71t136 -47t144.5 -17q76 0 147.5 17t136 47t121 71t103.5 90q47 47 84.5 100t62.5 116h32q-24 -69 -61.5 -128t-88.5 -114q-100 -101 -230.5 -162.5t-279.5 -68.5 l-51 -109q34 -5 63.5 -11.5t61.5 -23.5q59 -29 82 -98q0 -11 1.5 -17.5t1.5 -8.5q0 -14 -1.5 -20t-1.5 -13q-11 -33 -32 -56t-50 -42q-34 -17 -72.5 -28.5t-80.5 -11.5q-20 0 -45 4.5t-48 15.5q-38 15 -70 42t-45 68l36 5q0 -4 0.5 -9.5t4.5 -16.5q10 -19 29 -32.5 t42.5 -22.5t49 -13t46.5 -4q35 0 69 5t63 26q26 11 46.5 30.5t27.5 45.5v27v15q-7 28 -27.5 48.5t-46.5 33.5q-19 13 -37 20.5t-35.5 12t-35 6.5t-35.5 5l54 127q-156 5 -292 65t-233 166q-51 53 -92.5 115t-70 131.5t-44 145t-15.5 155.5z" />
<glyph unicode="&#xe8;" horiz-adv-x="972" d="M101 0v1548h859v-32h-827v-721h809v-39h-809v-730h830v-26h-854h-8zM405 1795h54l126 -165h-36z" />
<glyph unicode="&#xe9;" horiz-adv-x="972" d="M101 0v1548h859v-32h-827v-721h809v-39h-809v-730h830v-26h-854h-8zM496 1627l129 165h68l-153 -165h-44z" />
<glyph unicode="&#xea;" horiz-adv-x="972" d="M101 0v1548h859v-32h-827v-721h809v-39h-809v-730h830v-26h-854h-8zM405 1624l127 157h56l126 -157h-30l-124 124l-124 -124h-31z" />
<glyph unicode="&#xeb;" horiz-adv-x="972" d="M101 0v1548h859v-32h-827v-721h809v-39h-809v-730h830v-26h-854h-8zM383 1683q0 25 13.5 36.5t28.5 11.5q20 0 32.5 -11.5t12.5 -36.5q0 -15 -12.5 -27.5t-32.5 -12.5q-15 0 -28.5 12.5t-13.5 27.5zM653 1683q0 48 40 48q16 0 29 -11.5t13 -36.5q0 -15 -13 -27.5 t-29 -12.5q-20 0 -30 12.5t-10 27.5z" />
<glyph unicode="&#xec;" horiz-adv-x="750" d="M26 0v26h337v1490h-337v32h700v-32h-337v-1490h337v-26h-700zM222 1792h56l127 -165h-39z" />
<glyph unicode="&#xed;" horiz-adv-x="750" d="M26 0v26h337v1490h-337v32h700v-32h-337v-1490h337v-26h-700zM351 1627l127 165h62l-138 -165h-51z" />
<glyph unicode="&#xee;" horiz-adv-x="750" d="M26 0v26h337v1490h-337v32h700v-32h-337v-1490h337v-26h-700zM222 1624l127 163h59l124 -163h-36l-119 134l-121 -134h-34z" />
<glyph unicode="&#xef;" horiz-adv-x="750" d="M26 0v26h337v1490h-337v32h700v-32h-337v-1490h337v-26h-700zM203 1689q0 23 12.5 32.5t29.5 9.5q22 0 33.5 -9.5t11.5 -32.5q0 -15 -11.5 -26.5t-33.5 -11.5q-17 0 -29.5 11.5t-12.5 26.5zM472 1689q0 23 10.5 32.5t30.5 9.5q14 0 28 -9.5t14 -32.5q0 -15 -14 -26.5 t-28 -11.5q-20 0 -30.5 11.5t-10.5 26.5z" />
<glyph unicode="&#xf1;" d="M101 0v1550l32 -2l1028 -1483v1483h37v-1548h-37l-1028 1476v-1476h-32zM470 1651q4 32 19.5 54t42.5 28q20 12 41 12.5t41 -6.5t38 -19.5t32 -26.5q15 -23 42 -27t54 3q17 8 31.5 25t24.5 37h21q-2 -36 -23.5 -58t-47.5 -30q-32 -14 -66.5 -4t-58.5 38q-27 23 -61 33.5 t-60 -0.5q-16 -4 -30.5 -21.5t-16.5 -45.5z" />
<glyph unicode="&#xf2;" horiz-adv-x="1660" d="M45 777q0 81 16 158t45.5 148t72 134.5t95.5 117.5q54 55 117 100t133 77t146.5 49t158.5 17q83 0 161.5 -17t149.5 -49t135 -77t119 -100q52 -54 94.5 -117.5t72.5 -134.5t46.5 -148t16.5 -158q0 -83 -16.5 -162.5t-46.5 -151.5t-72.5 -136.5t-94.5 -117.5 q-55 -53 -119 -96.5t-135 -74t-149.5 -47.5t-161.5 -17q-82 0 -158.5 17t-146.5 47.5t-133 74t-117 96.5q-53 53 -95.5 117.5t-72 136.5t-45.5 151.5t-16 162.5zM76 777q0 -164 60.5 -300t164.5 -241q102 -104 236 -164t292 -60q157 0 295 60t243 164q50 52 91 112.5 t70 128.5t45 143.5t16 156.5q0 78 -16 152t-45 141.5t-70 126.5t-91 108q-52 52 -113.5 95t-129.5 74t-142.5 48t-152.5 17q-79 0 -152 -17t-140 -48t-126 -74t-110 -95q-104 -98 -164.5 -234t-60.5 -294zM704 1823h60l121 -172h-31z" />
<glyph unicode="&#xf3;" horiz-adv-x="1660" d="M45 777q0 81 16 158t45.5 148t72 134.5t95.5 117.5q54 55 117 100t133 77t146.5 49t158.5 17q83 0 161.5 -17t149.5 -49t135 -77t119 -100q52 -54 94.5 -117.5t72.5 -134.5t46.5 -148t16.5 -158q0 -83 -16.5 -162.5t-46.5 -151.5t-72.5 -136.5t-94.5 -117.5 q-55 -53 -119 -96.5t-135 -74t-149.5 -47.5t-161.5 -17q-82 0 -158.5 17t-146.5 47.5t-133 74t-117 96.5q-53 53 -95.5 117.5t-72 136.5t-45.5 151.5t-16 162.5zM76 777q0 -164 60.5 -300t164.5 -241q102 -104 236 -164t292 -60q157 0 295 60t243 164q50 52 91 112.5 t70 128.5t45 143.5t16 156.5q0 78 -16 152t-45 141.5t-70 126.5t-91 108q-52 52 -113.5 95t-129.5 74t-142.5 48t-152.5 17q-79 0 -152 -17t-140 -48t-126 -74t-110 -95q-104 -98 -164.5 -234t-60.5 -294zM836 1643l127 170h54l-146 -170h-35z" />
<glyph unicode="&#xf4;" horiz-adv-x="1660" d="M45 777q0 81 16 158t45.5 148t72 134.5t95.5 117.5q54 55 117 100t133 77t146.5 49t158.5 17q83 0 161.5 -17t149.5 -49t135 -77t119 -100q52 -54 94.5 -117.5t72.5 -134.5t46.5 -148t16.5 -158q0 -83 -16.5 -162.5t-46.5 -151.5t-72.5 -136.5t-94.5 -117.5 q-55 -53 -119 -96.5t-135 -74t-149.5 -47.5t-161.5 -17q-82 0 -158.5 17t-146.5 47.5t-133 74t-117 96.5q-53 53 -95.5 117.5t-72 136.5t-45.5 151.5t-16 162.5zM76 777q0 -164 60.5 -300t164.5 -241q102 -104 236 -164t292 -60q157 0 295 60t243 164q50 52 91 112.5 t70 128.5t45 143.5t16 156.5q0 78 -16 152t-45 141.5t-70 126.5t-91 108q-52 52 -113.5 95t-129.5 74t-142.5 48t-152.5 17q-79 0 -152 -17t-140 -48t-126 -74t-110 -95q-104 -98 -164.5 -234t-60.5 -294zM696 1643l125 167h62l126 -167h-31l-121 132l-125 -132h-36z" />
<glyph unicode="&#xf5;" horiz-adv-x="1660" d="M45 777q0 81 16 158t45.5 148t72 134.5t95.5 117.5q54 55 117 100t133 77t146.5 49t158.5 17q83 0 161.5 -17t149.5 -49t135 -77t119 -100q52 -54 94.5 -117.5t72.5 -134.5t46.5 -148t16.5 -158q0 -83 -16.5 -162.5t-46.5 -151.5t-72.5 -136.5t-94.5 -117.5 q-55 -53 -119 -96.5t-135 -74t-149.5 -47.5t-161.5 -17q-82 0 -158.5 17t-146.5 47.5t-133 74t-117 96.5q-53 53 -95.5 117.5t-72 136.5t-45.5 151.5t-16 162.5zM76 777q0 -164 60.5 -300t164.5 -241q102 -104 236 -164t292 -60q157 0 295 60t243 164q50 52 91 112.5 t70 128.5t45 143.5t16 156.5q0 78 -16 152t-45 141.5t-70 126.5t-91 108q-52 52 -113.5 95t-129.5 74t-142.5 48t-152.5 17q-79 0 -152 -17t-140 -48t-126 -74t-110 -95q-104 -98 -164.5 -234t-60.5 -294zM676 1663q6 33 21.5 53.5t43.5 31.5q41 16 81 3t63 -44 q26 -20 50 -24.5t51 -2.5q17 10 31.5 28t19.5 40l26 -6q-9 -28 -25.5 -54.5t-45.5 -33.5q-32 -11 -65.5 -3t-58.5 32q-24 29 -59 38t-62 1q-16 -5 -30 -21t-18 -41z" />
<glyph unicode="&#xf6;" horiz-adv-x="1660" d="M45 777q0 81 16 158t45.5 148t72 134.5t95.5 117.5q54 55 117 100t133 77t146.5 49t158.5 17q83 0 161.5 -17t149.5 -49t135 -77t119 -100q52 -54 94.5 -117.5t72.5 -134.5t46.5 -148t16.5 -158q0 -83 -16.5 -162.5t-46.5 -151.5t-72.5 -136.5t-94.5 -117.5 q-55 -53 -119 -96.5t-135 -74t-149.5 -47.5t-161.5 -17q-82 0 -158.5 17t-146.5 47.5t-133 74t-117 96.5q-53 53 -95.5 117.5t-72 136.5t-45.5 151.5t-16 162.5zM76 777q0 -164 60.5 -300t164.5 -241q102 -104 236 -164t292 -60q157 0 295 60t243 164q50 52 91 112.5 t70 128.5t45 143.5t16 156.5q0 78 -16 152t-45 141.5t-70 126.5t-91 108q-52 52 -113.5 95t-129.5 74t-142.5 48t-152.5 17q-79 0 -152 -17t-140 -48t-126 -74t-110 -95q-104 -98 -164.5 -234t-60.5 -294zM678 1716q0 13 10 27.5t26 14.5q23 0 34 -14.5t11 -27.5 q0 -17 -11 -28t-34 -11q-16 0 -26 11t-10 28zM944 1716q0 13 12.5 27.5t29.5 14.5t31 -14.5t14 -27.5q0 -17 -14 -28t-31 -11t-29.5 11t-12.5 28z" />
<glyph unicode="&#xf8;" horiz-adv-x="1660" d="M45 777q0 81 16 158t45.5 148t72 134.5t95.5 117.5q54 55 117 100t133 77t146.5 49t158.5 17q114 0 220 -33.5t199 -91.5l98 165h48l-121 -187q30 -20 62 -44t59 -52q52 -54 94.5 -117.5t72.5 -134.5t46.5 -148t16.5 -158q0 -83 -16.5 -162.5t-46.5 -151.5t-72.5 -136.5 t-94.5 -117.5q-55 -53 -119 -96.5t-135 -74t-149.5 -47.5t-161.5 -17q-56 0 -111 8.5t-107.5 24.5t-101 37t-90.5 47l-112 -170h-45l121 197q-28 15 -56 41t-53 50q-53 53 -95.5 117.5t-72 136.5t-45.5 151.5t-16 162.5zM76 777q0 -164 60.5 -300t164.5 -241 q22 -25 48.5 -48.5t55.5 -46.5l820 1287q-91 52 -189.5 81.5t-206.5 29.5q-79 0 -152 -17t-140 -48t-126 -74t-110 -95q-104 -98 -164.5 -234t-60.5 -294zM436 127q85 -58 187.5 -86.5t205.5 -28.5q157 0 295 60t243 164q50 52 91 112.5t70 128.5t45 143.5t16 156.5 q0 78 -16 152t-45 141.5t-70 126.5t-91 108q-26 29 -55.5 54t-63.5 44z" />
<glyph unicode="&#xf9;" horiz-adv-x="1290" d="M101 422v1126h32v-1129q0 -101 46 -177t119.5 -126.5t164 -76t179.5 -25.5q59 0 119.5 11.5t116.5 34t105.5 56.5t86.5 79.5t58 102t21 124.5v1126h35v-1129q0 -72 -22 -131.5t-61 -107.5t-91 -84.5t-112.5 -61t-125.5 -36.5t-130 -12q-97 0 -193.5 27.5t-174 82 t-125.5 136.5t-48 190zM510 1792h53l133 -165h-43z" />
<glyph unicode="&#xfa;" horiz-adv-x="1290" d="M101 422v1126h32v-1129q0 -101 46 -177t119.5 -126.5t164 -76t179.5 -25.5q59 0 119.5 11.5t116.5 34t105.5 56.5t86.5 79.5t58 102t21 124.5v1126h35v-1129q0 -71 -22 -131t-61 -108t-91 -84.5t-112.5 -61t-125.5 -36.5t-130 -12q-97 0 -193.5 27.5t-174 82 t-125.5 136.5t-48 190zM619 1624l128 166h65l-151 -166h-42z" />
<glyph unicode="&#xfb;" horiz-adv-x="1290" d="M101 422v1126h32v-1129q0 -101 46 -177t119.5 -126.5t164 -76t179.5 -25.5q59 0 119.5 11.5t116.5 34t105.5 56.5t86.5 79.5t58 102t21 124.5v1126h35v-1129q0 -71 -22 -131t-61 -108t-91 -84.5t-112.5 -61t-125.5 -36.5t-130 -12q-97 0 -193.5 27.5t-174 82 t-125.5 136.5t-48 190zM484 1640l127 155h65l122 -155h-34l-122 129l-123 -129h-35z" />
<glyph unicode="&#xfc;" horiz-adv-x="1290" d="M101 422v1126h32v-1129q0 -101 46 -177t119.5 -126.5t164 -76t179.5 -25.5q59 0 119.5 11.5t116.5 34t105.5 56.5t86.5 79.5t58 102t21 124.5v1126h35v-1129q0 -72 -22 -131.5t-61 -107.5t-91 -84.5t-112.5 -61t-125.5 -36.5t-130 -12q-97 0 -193.5 27.5t-174 82 t-125.5 136.5t-48 190zM472 1689q0 23 10.5 32.5t30.5 9.5q14 0 28 -9.5t14 -32.5q0 -15 -14 -26.5t-28 -11.5q-20 0 -30.5 11.5t-10.5 26.5zM741 1689q0 23 10.5 32.5t28.5 9.5q17 0 29 -9.5t12 -32.5q0 -15 -12 -26.5t-29 -11.5q-18 0 -28.5 11.5t-10.5 26.5z" />
<glyph unicode="&#xfd;" horiz-adv-x="1192" d="M12 1548h38l543 -872l547 872h41l-570 -906v-642h-36v642zM549 1627l129 165h63l-153 -165h-39z" />
<glyph unicode="&#xff;" horiz-adv-x="1192" d="M12 1548h38l543 -872l547 872h41l-570 -906v-642h-36v642zM425 1689q0 23 10.5 32.5t31.5 9.5q17 0 30 -9.5t13 -32.5q0 -15 -13 -26.5t-30 -11.5q-21 0 -31.5 11.5t-10.5 26.5zM693 1689q0 23 9 32.5t30 9.5q20 0 32.5 -9.5t12.5 -32.5q0 -15 -12.5 -26.5t-32.5 -11.5 q-21 0 -30 11.5t-9 26.5z" />
<glyph unicode="&#x152;" horiz-adv-x="1834" d="M45 777q0 81 16 161t45.5 155t72 142.5t95.5 122.5q109 107 249.5 158.5t305.5 51.5q36 0 70.5 -5t66.5 -10h851v-31h-819v-727h803v-39h-803v-730h825v-32h-843q-35 -5 -75 -6.5t-76 -1.5q-164 0 -305 50t-250 158q-53 53 -95.5 119.5t-72 142t-45.5 157t-16 164.5z M76 777q0 -164 60.5 -306t164.5 -246q102 -110 236 -160.5t292 -50.5q32 0 66.5 5t67.5 7v1496q-29 4 -65.5 7.5t-68.5 3.5q-158 0 -292 -50.5t-236 -156.5q-52 -50 -93.5 -113t-71 -133.5t-45 -147.5t-15.5 -155z" />
<glyph unicode="&#x153;" horiz-adv-x="1834" d="M45 777q0 81 16 161t45.5 155t72 142.5t95.5 122.5q109 107 249.5 158.5t305.5 51.5q36 0 70.5 -5t66.5 -10h851v-31h-819v-727h803v-39h-803v-730h825v-32h-843q-35 -5 -75 -6.5t-76 -1.5q-164 0 -305 50t-250 158q-53 53 -95.5 119.5t-72 142t-45.5 157t-16 164.5z M76 777q0 -164 60.5 -306t164.5 -246q102 -110 236 -160.5t292 -50.5q32 0 66.5 5t67.5 7v1496q-29 4 -65.5 7.5t-68.5 3.5q-158 0 -292 -50.5t-236 -156.5q-52 -50 -93.5 -113t-71 -133.5t-45 -147.5t-15.5 -155z" />
<glyph unicode="&#x178;" horiz-adv-x="1192" d="M12 1548h38l543 -872l547 872h41l-570 -906v-642h-36v642zM422 1689q0 23 10 32.5t27 9.5q21 0 34.5 -9.5t13.5 -32.5q0 -15 -13.5 -26.5t-34.5 -11.5q-17 0 -27 11.5t-10 26.5zM693 1689q0 23 8 32.5t25 9.5q18 0 32 -9.5t14 -32.5q0 -15 -14 -26.5t-32 -11.5 q-17 0 -25 11.5t-8 26.5z" />
<glyph unicode="&#x2c6;" horiz-adv-x="693" d="M194 1598l127 150h56l136 -150h-38l-124 133l-126 -133h-31z" />
<glyph unicode="&#x2dc;" horiz-adv-x="772" d="M186 1618q6 32 25 53.5t45 33.5q19 7 39 6.5t39.5 -7t37.5 -18t33 -26.5q7 -11 18.5 -18t23.5 -10t24 -2.5t22 4.5q25 7 40.5 22.5t15.5 42.5l26 -6q-9 -32 -25.5 -55t-39.5 -31q-32 -14 -69 -5t-64 38q-23 28 -54.5 37t-60.5 0q-20 -11 -31.5 -26.5t-21.5 -38.5z" />
<glyph unicode="&#x2000;" horiz-adv-x="911" />
<glyph unicode="&#x2001;" horiz-adv-x="1823" />
<glyph unicode="&#x2002;" horiz-adv-x="911" />
<glyph unicode="&#x2003;" horiz-adv-x="1823" />
<glyph unicode="&#x2004;" horiz-adv-x="607" />
<glyph unicode="&#x2005;" horiz-adv-x="455" />
<glyph unicode="&#x2006;" horiz-adv-x="303" />
<glyph unicode="&#x2007;" horiz-adv-x="303" />
<glyph unicode="&#x2008;" horiz-adv-x="227" />
<glyph unicode="&#x2009;" horiz-adv-x="364" />
<glyph unicode="&#x200a;" horiz-adv-x="101" />
<glyph unicode="&#x2010;" horiz-adv-x="786" d="M127 694v45h504v-45h-504z" />
<glyph unicode="&#x2011;" horiz-adv-x="786" d="M127 694v45h504v-45h-504z" />
<glyph unicode="&#x2012;" horiz-adv-x="786" d="M127 694v45h504v-45h-504z" />
<glyph unicode="&#x2013;" horiz-adv-x="1840" />
<glyph unicode="&#x2014;" horiz-adv-x="2330" d="M127 694v45h2048v-45h-2048z" />
<glyph unicode="&#x2018;" horiz-adv-x="1840" />
<glyph unicode="&#x2026;" horiz-adv-x="862" d="M107 29q0 27 9.5 37t24.5 10q23 0 34 -10t11 -37q0 -11 -11 -23t-34 -12q-15 0 -24.5 12t-9.5 23zM366 29q0 27 9 37t30 10q17 0 28.5 -10t11.5 -37q0 -11 -11.5 -23t-28.5 -12q-21 0 -30 12t-9 23zM619 29q0 27 13 37t23 10q22 0 35.5 -10t13.5 -37q0 -11 -13.5 -23 t-35.5 -12q-5 0 -11 3.5t-11.5 8.5t-9.5 11t-4 12z" />
<glyph unicode="&#x202f;" horiz-adv-x="364" />
<glyph unicode="&#x205f;" horiz-adv-x="455" />
<glyph unicode="&#x20ac;" horiz-adv-x="1559" d="M-26 696v36h105v40v43h-105v42h111q12 131 71 248t148 208q102 108 237.5 168.5t294.5 60.5q158 0 295.5 -60.5t246.5 -168.5q47 -49 87.5 -110.5t67.5 -128.5h-36q-26 66 -64.5 118t-80.5 101q-104 102 -235.5 159.5t-280.5 57.5q-73 0 -143.5 -15t-136.5 -43 t-124.5 -68t-107.5 -91q-87 -89 -140.5 -202t-62.5 -234h405v-42h-408v-43v-40h408v-36h-405q9 -128 62.5 -243t140.5 -202q49 -49 107.5 -90t124.5 -71t136.5 -47t143.5 -17q74 0 144.5 17t136 47t124.5 71t111 90q42 47 80.5 100t64.5 116h36q-27 -69 -67.5 -128 t-87.5 -114q-109 -110 -246.5 -170.5t-295.5 -60.5q-159 0 -294.5 60.5t-237.5 170.5q-89 91 -148.5 212t-76.5 259h-105z" />
<glyph unicode="&#x25fc;" horiz-adv-x="1550" d="M0 0v1550h1550v-1550h-1550z" />
<glyph unicode="&#xfb01;" horiz-adv-x="1486" d="M101 0v1548h838v-32h-806v-721h715v-39h-715v-756h-32zM750 0v26h334v1522h359v-32h-327v-1490h327v-26h-693z" />
<glyph unicode="&#xfb02;" horiz-adv-x="1981" d="M101 0v1548h838v-32h-806v-721h715v-39h-715v-756h-32zM1084 0v1548h32v-1519h836v-29h-868z" />
</font>
</defs>
</svg>
